<svg id="Capa_1" enable-background="new 0 0 511.998 511.998" height="512" viewBox="0 0 511.998 511.998" width="512" xmlns="http://www.w3.org/2000/svg" xmlns:xlink="http://www.w3.org/1999/xlink"><linearGradient id="SVGID_1_" gradientUnits="userSpaceOnUse" x1="255.999" x2="255.999" y1="511.998" y2="0"><stop offset="0" stop-color="#fd5900"/><stop offset="1" stop-color="#ffde00"/></linearGradient><linearGradient id="SVGID_2_" gradientUnits="userSpaceOnUse" x1="255.998" x2="255.998" y1="301" y2="211"><stop offset="0" stop-color="#ffe59a"/><stop offset="1" stop-color="#ffffd5"/></linearGradient><g><g><g><path d="m255.998 0c-140.61 0-255.998 115.39-255.998 256 0 48.94 14.797 96.182 40.988 137.153l-39.915 98.278c-2.227 5.566-.923 11.924 3.325 16.172 4.182 4.182 10.516 5.578 16.172 3.325l98.275-39.918c40.972 26.191 88.213 40.988 137.153 40.988 140.61 0 256-115.387 256-255.997s-115.39-256.001-256-256.001z" fill="url(#SVGID_1_)"/></g></g><g><g><path d="m255.998 211c-24.814 0-45 20.186-45 45s20.186 45 45 45 45-20.186 45-45-20.186-45-45-45zm-120 0c-24.814 0-45 20.186-45 45s20.186 45 45 45 45-20.186 45-45-20.186-45-45-45zm240 0c-24.814 0-45 20.186-45 45s20.186 45 45 45 45-20.186 45-45-20.186-45-45-45z" fill="url(#SVGID_2_)"/></g></g></g></svg>